<svg xmlns="http://www.w3.org/2000/svg" xmlns:xlink="http://www.w3.org/1999/xlink" width="500" zoomAndPan="magnify" viewBox="0 0 375 374.999991" height="500" preserveAspectRatio="xMidYMid meet" version="1.2"><g id="c23e0f11fa"><path style=" stroke:none;fill-rule:nonzero;fill:#fe8e4b;fill-opacity:1;" d="M 187.578125 375.09375 C 84.015625 375.09375 0.0585938 291.140625 0.0585938 187.578125 C 0.0585938 84.015625 84.015625 0.0585938 187.578125 0.0585938 C 291.140625 0.0585938 375.09375 84.015625 375.09375 187.578125 C 375.09375 291.140625 291.140625 375.09375 187.578125 375.09375 "/><path style=" stroke:none;fill-rule:nonzero;fill:#ffffff;fill-opacity:1;" d="M 237.652344 130.882812 L 170.148438 198.382812 C 168.640625 199.890625 166.191406 199.890625 164.679688 198.382812 L 138.179688 171.882812 C 127.726562 161.425781 110.78125 161.425781 100.328125 171.882812 C 89.875 182.332031 89.875 199.277344 100.328125 209.734375 L 148.492188 257.894531 C 158.941406 268.34375 175.886719 268.34375 186.335938 257.894531 L 205.261719 238.96875 L 275.503906 168.734375 C 285.953125 158.28125 285.953125 141.332031 275.503906 130.882812 C 265.046875 120.429688 248.101562 120.429688 237.652344 130.882812 "/></g></svg>