<svg version="1.1" id="Capa_1" xmlns="http://www.w3.org/2000/svg" xmlns:xlink="http://www.w3.org/1999/xlink" x="0px" y="0px" viewBox="0 0 1920 1080">
<style type="text/css">
.st0{fill:#FFFFFF;stroke:#040006;stroke-width:40;stroke-miterlimit:10;}
.st1{fill:#040006;stroke:#FFFFFF;stroke-miterlimit:10;}
</style>
<path class="st0" d="M1747.06,864.23h-90.52c-50.82,0-92.01-41.2-92.01-92.01V501.94h90.52c50.82,0,92.01,41.2,92.01,92.01V864.23z"
/>
<path class="st0" d="M1660.47,427.82h-95.94v-87.36c0-51.84,42.02-93.86,93.86-93.86h8.59c48.25,0,87.36,39.11,87.36,87.36v0
C1754.34,385.8,1712.31,427.82,1660.47,427.82z"/>
<path class="st0" d="M1493.31,864.23h-80.22c-56.51,0-102.31-45.81-102.31-102.31V246.61H1391c56.51,0,102.31,45.81,102.31,102.31
V864.23z"/>
<path class="st0" d="M346.11,864.23H163.57V332.72c0-47.56,38.55-86.11,86.11-86.11h0c53.25,0,96.42,43.17,96.42,96.42"/>
<path class="st0" d="M325.47,340.07h113.7c56.08,0,101.55,49.69,101.55,110.98v348.51c0,35.72-26.49,64.68-59.18,64.68H325.47"/>
<path class="st1" d="M350.59,756.4L350.59,756.4c-15.01,0-27.18-12.17-27.18-27.18V494.83c0-15.01,12.17-27.18,27.18-27.18h0
c15.01,0,27.18,12.17,27.18,27.18v234.39C377.77,744.23,365.6,756.4,350.59,756.4z"/>
<path class="st0" d="M1132.16,864.23H722.48c-57.42,0-103.97-46.55-103.97-103.97V350.58c0-57.42-257.6-103.97,3.1-103.97h510.55
c57.42,0,103.97,46.55,103.97,103.97v409.68C1236.13,817.68,1189.58,864.23,1132.16,864.23z"/>
<path class="st1" d="M818.11,718.1L818.11,718.1c-26.95,0-48.8-21.85-48.8-48.8V441.54c0-26.95,21.85-48.8,48.8-48.8h0
c26.95,0,48.8,21.85,48.8,48.8V669.3C866.91,696.25,845.06,718.1,818.11,718.1z"/>
<path class="st1" d="M1027.68,718.1L1027.68,718.1c-26.95,0-48.8-21.85-48.8-48.8V441.54c0-26.95,21.85-48.8,48.8-48.8h0
c26.95,0,48.8,21.85,48.8,48.8V669.3C1076.49,696.25,1054.64,718.1,1027.68,718.1z"/>
</svg>