<svg id="Capa_1" xmlns="http://www.w3.org/2000/svg" viewBox="0 0 1000 900">
    <style>
        .cls-1{fill:#fcbb1a;}
        .cls-1,.cls-2,.cls-3,.cls-4,.cls-5,.cls-6,.cls-7,.cls-8,.cls-9,.cls-10{stroke-width:0px;}
        .cls-2{fill:#291a31;}
        .cls-3{fill:#087eb2;}
        .cls-4{fill:#4b4080;}
        .cls-5,.cls-8{fill:#ac5113;}
        .cls-6{fill:#104f6b;}
        .cls-11,.cls-8{opacity:.37;}
        .cls-7{opacity:.25;}
        .cls-7,.cls-10{fill:#fff;}
        .cls-9{fill:#ff8901;}
    </style>
    <path class="cls-10" d="M739.06,140.89c0-56.94-46.32-103.26-103.26-103.26h-324.8c-20.74,0-39.32,9.33-51.39,25.1l-67.9,71.89c-2.18,2.1-4.25,4.34-6.15,6.77-3.44,4.39-6.32,9.25-8.57,14.43-10.47,24.11-5.83,51.03,12.12,70.24l59.82,64.01v109.21c0,23.09,8.93,49.45,23.88,70.51,17.83,25.11,41.06,38.99,65.45,39.09l236.05,5.32c.17,0,.33,0,.5,0,24.65,0,44.72-4.76,59.65-14.15h.01c7.11-3.41,14.21-8.11,21.55-14.6.43-.38.84-.77,1.24-1.18l55.3-57.14c.3-.3.58-.6.87-.9l1.72-1.78c.1-.11.19-.22.29-.33,14.65-15.99,23.6-37.28,23.6-60.62v-222.62Z"/>
    <path class="cls-2" d="M717.01,142.34c0-44.79-36.44-81.23-81.23-81.23h-324.8c-13.95,0-26.43,6.4-34.39,17.17h0s-69.16,73.22-69.16,73.22c-1.63,1.51-3.15,3.15-4.53,4.92-2.26,2.89-4.18,6.11-5.71,9.63-6.92,15.94-3.85,33.73,8.01,46.42l65.66,70.26c.06.06.09.15.09.24v117.76c0,37.26,30.32,87.58,67.58,87.58l236.27,5.33c19.06,0,36.29-3.18,48.62-11.23,6.06-2.67,11.81-6.5,18.01-11.99l55.3-57.14c.85-.83,1.68-1.69,2.48-2.56l.11-.12h0c10.99-12.06,17.7-28.08,17.7-45.63v-222.61Z"/>
    <path class="cls-4" d="M635.78,61.11h-324.8c-17.38,0-32.47,9.9-39.39,25.84-6.92,15.94-3.85,33.73,8.01,46.42l65.66,70.26c.06.07.09.15.09.24v161.31c0,37.26,30.32,67.58,67.58,67.58h236.27c37.39,0,67.81-30.42,67.81-67.81v-222.61c0-44.79-36.44-81.23-81.23-81.23Z"/>
    <path class="cls-9" d="M635.78,61.11h-324.8c-17.38,0-32.47,9.9-39.39,25.84-6.92,15.94-3.85,33.73,8.01,46.42l65.66,70.26c.06.07.09.15.09.24v161.31c0,37.26,30.32,67.58,67.58,67.58h236.27c37.39,0,67.81-30.42,67.81-67.81v-222.61c0-44.79-36.44-81.23-81.23-81.23Z"/>
    <path class="cls-8" d="M328.82,79.46c-19.11,0-33.65,32.36-20.6,46.54l52.29,56.56c3.78,4.11,6.79,9.21,6.79,14.84l-3.11,143.17c1.04,49.59,29.98,69.69,61.72,69.69h219.67c25.93,0,51.58-23.5,51.58-56.06v-199.2c0-24.84-12.63-50.31-25.74-60.98-15.16-12.34-24.15-14.57-42.06-14.57h-300.53Z"/>
    <path class="cls-1" d="M384.29,78.27h-54.05c-18.38,0-27.9,21.93-15.35,35.36l60,65.54c3.64,3.89,6.29,11.97,6.29,17.29l-3.87,141.86c0,41.91,27.11,59.42,51.92,59.42h229.38c24.94,0,45.16-20.22,45.16-45.16v-216.13c0-32.14-26.05-58.19-58.19-58.19h-261.28Z"/>
    <g class="cls-11">
        <rect class="cls-5" x="468.84" y="163.38" width="42.21" height="149.26" rx="2.11" ry="2.11"/>
        <rect class="cls-5" x="573.72" y="163.38" width="42.21" height="149.26" rx="2.11" ry="2.11"/>
    </g>
    <rect class="cls-10" x="475.67" y="159.07" width="42.21" height="149.26" rx="2.11" ry="2.11"/>
    <rect class="cls-10" x="580.55" y="159.07" width="42.21" height="149.26" rx="2.11" ry="2.11"/>
    <path class="cls-7" d="M684.72,93.2c-10.48-9.29-23.99-14.93-39.1-14.93h-314.95c-18.77,0-28.49,22.39-15.68,36.1l6.24,6.68s-10.6-15.15-6.74-25.95c0,0,4.09-12.42,19.21-12.42h315.18s18.05-.82,34.05,9.16l1.79,1.36Z"/>
    <path class="cls-2" d="M90.8,756.6l-.51-.31s.18.12.51.31Z"/>
</svg>